<svg viewBox="0 0 61 38"  xmlns="http://www.w3.org/2000/svg">
<path fill-rule="evenodd" clip-rule="evenodd" d="M51.9697 18.5C50.7396 18.5 48.3173 19.3019 47.25 19.75C47.25 19.75 48.5 18.5 48.5 13.5C48.5 6.75 42.6797 0.5 35.5 0.5H30.5C23.2259 0.5 16.25 5.75 15.5 12.5C15.5 12.5 12.8807 12 11.5 12C6.5 12 0 17.3726 0 24V27.5C0 33.0228 4.47715 37.5 10 37.5H52.1418C58.25 36 61 33.4184 61 28.25C61 22.25 57.2331 18.5 51.9697 18.5ZM42 13L33.25 21.5L41 31H34.5L28.5 23.6452V31H23.5V13H28.5V19.8L35.5 13H42Z" />
</svg>
